HIERARCHY
ROOT Root
{
  OFFSET 0.0 0.0 0.0
  CHANNELS 6 Xposition Yposition Zposition Zrotation Yrotation Xrotation
  JOINT Hips
  {
    OFFSET 0.0 100.0 0.0
    CHANNELS 6 Xposition Yposition Zposition Zrotation Yrotation Xrotation
    JOINT Spine1
    {
      OFFSET 5.003913 -0.037094 -0.013727
      CHANNELS 3 Zrotation Yrotation Xrotation
      JOINT Spine2
      {
        OFFSET 7.125363 -1e-06 0.0
        CHANNELS 3 Zrotation Yrotation Xrotation
        JOINT Chest
        {
          OFFSET 7.594027 1e-06 0.0
          CHANNELS 3 Zrotation Yrotation Xrotation
          JOINT Neck1
          {
            OFFSET 26.313086 -0.460272 -0.181672
            CHANNELS 3 Zrotation Yrotation Xrotation
            JOINT Neck2
            {
              OFFSET 8.045911 0.0 0.0
              CHANNELS 3 Zrotation Yrotation Xrotation
              JOINT Head
              {
                OFFSET 6.432774 0.0 0.0
                CHANNELS 3 Zrotation Yrotation Xrotation
                JOINT HeadEnd
                {
                  OFFSET 16.169773 0.06451 0.00362
                  CHANNELS 3 Zrotation Yrotation Xrotation
                }
                JOINT Jaw
                {
                  OFFSET 0.108741 3.12938 0.002639
                  CHANNELS 3 Zrotation Yrotation Xrotation
                }
                JOINT LeftEye
                {
                  OFFSET 4.45173 8.166359 3.206392
                  CHANNELS 3 Zrotation Yrotation Xrotation
                }
                JOINT RightEye
                {
                  OFFSET 4.436895 8.135758 -3.222429
                  CHANNELS 3 Zrotation Yrotation Xrotation
                }
              }
            }
          }
          JOINT LeftShoulder
          {
            OFFSET 23.218927 5.195579 1.621656
            CHANNELS 3 Zrotation Yrotation Xrotation
            JOINT LeftArm
            {
              OFFSET 15.902118 2e-06 -2e-06
              CHANNELS 3 Zrotation Yrotation Xrotation
              JOINT LeftForeArm
              {
                OFFSET 28.739307 0.0 -1e-06
                CHANNELS 3 Zrotation Yrotation Xrotation
                JOINT LeftHand
                {
                  OFFSET 27.093981 -4e-06 0.0
                  CHANNELS 3 Zrotation Yrotation Xrotation
                  JOINT LeftHandThumb1
                  {
                    OFFSET 2.276781 3.380274 0.83384
                    CHANNELS 3 Zrotation Yrotation Xrotation
                    JOINT LeftHandThumb2
                    {
                      OFFSET 4.705309 -1e-06 -1e-06
                      CHANNELS 3 Zrotation Yrotation Xrotation
                      JOINT LeftHandThumb3
                      {
                        OFFSET 2.798515 0.0 3e-06
                        CHANNELS 3 Zrotation Yrotation Xrotation
                        JOINT LeftHandThumbEnd
                        {
                          OFFSET 3.180793 4e-06 -4e-06
                          CHANNELS 3 Zrotation Yrotation Xrotation
                        }
                      }
                    }
                  }
                  JOINT LeftHandIndex1
                  {
                    OFFSET 3.247786 2.352677 0.137192
                    CHANNELS 3 Zrotation Yrotation Xrotation
                    JOINT LeftHandIndex2
                    {
                      OFFSET 6.367095 1e-06 0.0
                      CHANNELS 3 Zrotation Yrotation Xrotation
                      JOINT LeftHandIndex3
                      {
                        OFFSET 3.662364 0.0 0.0
                        CHANNELS 3 Zrotation Yrotation Xrotation
                        JOINT LeftHandIndex4
                        {
                          OFFSET 2.329242 4e-06 -4e-06
                          CHANNELS 3 Zrotation Yrotation Xrotation
                          JOINT LeftHandIndexEnd
                          {
                            OFFSET 2.767823 1e-06 0.0
                            CHANNELS 3 Zrotation Yrotation Xrotation
                          }
                        }
                      }
                    }
                  }
                  JOINT LeftHandMiddle1
                  {
                    OFFSET 3.163612 0.945023 -0.406112
                    CHANNELS 3 Zrotation Yrotation Xrotation
                    JOINT LeftHandMiddle2
                    {
                      OFFSET 6.276789 3e-06 0.0
                      CHANNELS 3 Zrotation Yrotation Xrotation
                      JOINT LeftHandMiddle3
                      {
                        OFFSET 4.35652 -1e-06 4e-06
                        CHANNELS 3 Zrotation Yrotation Xrotation
                        JOINT LeftHandMiddle4
                        {
                          OFFSET 2.996877 0.0 8e-06
                          CHANNELS 3 Zrotation Yrotation Xrotation
                          JOINT LeftHandMiddleEnd
                          {
                            OFFSET 2.323256 3e-06 -4e-06
                            CHANNELS 3 Zrotation Yrotation Xrotation
                          }
                        }
                      }
                    }
                  }
                  JOINT LeftHandRing1
                  {
                    OFFSET 2.882606 -0.309162 0.107445
                    CHANNELS 3 Zrotation Yrotation Xrotation
                    JOINT LeftHandRing2
                    {
                      OFFSET 6.033198 0.0 4e-06
                      CHANNELS 3 Zrotation Yrotation Xrotation
                      JOINT LeftHandRing3
                      {
                        OFFSET 4.350578 3e-06 0.0
                        CHANNELS 3 Zrotation Yrotation Xrotation
                        JOINT LeftHandRing4
                        {
                          OFFSET 2.651321 2e-06 -7e-06
                          CHANNELS 3 Zrotation Yrotation Xrotation
                          JOINT LeftHandRingEnd
                          {
                            OFFSET 1.937663 1e-06 -4e-06
                            CHANNELS 3 Zrotation Yrotation Xrotation
                          }
                        }
                      }
                    }
                  }
                  JOINT LeftHandPinky1
                  {
                    OFFSET 2.865315 -1.525436 0.575687
                    CHANNELS 3 Zrotation Yrotation Xrotation
                    JOINT LeftHandPinky2
                    {
                      OFFSET 5.54936 1e-06 -8e-06
                      CHANNELS 3 Zrotation Yrotation Xrotation
                      JOINT LeftHandPinky3
                      {
                        OFFSET 3.070974 0.0 -4e-06
                        CHANNELS 3 Zrotation Yrotation Xrotation
                        JOINT LeftHandPinky4
                        {
                          OFFSET 1.549672 1e-06 0.0
                          CHANNELS 3 Zrotation Yrotation Xrotation
                          JOINT LeftHandPinkyEnd
                          {
                            OFFSET 1.952123 0.0 0.0
                            CHANNELS 3 Zrotation Yrotation Xrotation
                          }
                        }
                      }
                    }
                  }
                }
              }
            }
          }
          JOINT RightShoulder
          {
            OFFSET 23.161716 5.296122 -1.380114
            CHANNELS 3 Zrotation Yrotation Xrotation
            JOINT RightArm
            {
              OFFSET -16.027195 -2e-06 1.1e-05
              CHANNELS 3 Zrotation Yrotation Xrotation
              JOINT RightForeArm
              {
                OFFSET -28.736639 4e-06 2e-06
                CHANNELS 3 Zrotation Yrotation Xrotation
                JOINT RightHand
                {
                  OFFSET -27.133619 6e-06 0.0
                  CHANNELS 3 Zrotation Yrotation Xrotation
                  JOINT RightHandThumb1
                  {
                    OFFSET -2.274328 -3.351035 -0.83067
                    CHANNELS 3 Zrotation Yrotation Xrotation
                    JOINT RightHandThumb2
                    {
                      OFFSET -4.703594 -3e-06 2e-06
                      CHANNELS 3 Zrotation Yrotation Xrotation
                      JOINT RightHandThumb3
                      {
                        OFFSET -2.794935 -4e-06 -3e-06
                        CHANNELS 3 Zrotation Yrotation Xrotation
                        JOINT RightHandThumbEnd
                        {
                          OFFSET -3.183852 4e-06 1e-06
                          CHANNELS 3 Zrotation Yrotation Xrotation
                        }
                      }
                    }
                  }
                  JOINT RightHandIndex1
                  {
                    OFFSET -3.253496 -2.33755 -0.127667
                    CHANNELS 3 Zrotation Yrotation Xrotation
                    JOINT RightHandIndex2
                    {
                      OFFSET -6.344434 0.0 0.0
                      CHANNELS 3 Zrotation Yrotation Xrotation
                      JOINT RightHandIndex3
                      {
                        OFFSET -3.654871 0.0 -8e-06
                        CHANNELS 3 Zrotation Yrotation Xrotation
                        JOINT RightHandIndex4
                        {
                          OFFSET -2.327586 -1e-06 0.0
                          CHANNELS 3 Zrotation Yrotation Xrotation
                          JOINT RightHandIndexEnd
                          {
                            OFFSET -2.770001 3e-06 8e-06
                            CHANNELS 3 Zrotation Yrotation Xrotation
                          }
                        }
                      }
                    }
                  }
                  JOINT RightHandMiddle1
                  {
                    OFFSET -3.168223 -0.944764 0.411762
                    CHANNELS 3 Zrotation Yrotation Xrotation
                    JOINT RightHandMiddle2
                    {
                      OFFSET -6.266691 -1e-06 -4e-06
                      CHANNELS 3 Zrotation Yrotation Xrotation
                      JOINT RightHandMiddle3
                      {
                        OFFSET -4.348901 0.0 0.0
                        CHANNELS 3 Zrotation Yrotation Xrotation
                        JOINT RightHandMiddle4
                        {
                          OFFSET -3.00024 2e-06 -4e-06
                          CHANNELS 3 Zrotation Yrotation Xrotation
                          JOINT RightHandMiddleEnd
                          {
                            OFFSET -2.321477 -4e-06 -4e-06
                            CHANNELS 3 Zrotation Yrotation Xrotation
                          }
                        }
                      }
                    }
                  }
                  JOINT RightHandRing1
                  {
                    OFFSET -2.885654 0.293261 -0.119232
                    CHANNELS 3 Zrotation Yrotation Xrotation
                    JOINT RightHandRing2
                    {
                      OFFSET -6.032835 -1e-06 -4e-06
                      CHANNELS 3 Zrotation Yrotation Xrotation
                      JOINT RightHandRing3
                      {
                        OFFSET -4.33881 0.0 -4e-06
                        CHANNELS 3 Zrotation Yrotation Xrotation
                        JOINT RightHandRing4
                        {
                          OFFSET -2.654903 -4e-06 -4e-06
                          CHANNELS 3 Zrotation Yrotation Xrotation
                          JOINT RightHandRingEnd
                          {
                            OFFSET -1.935122 0.0 4e-06
                            CHANNELS 3 Zrotation Yrotation Xrotation
                          }
                        }
                      }
                    }
                  }
                  JOINT RightHandPinky1
                  {
                    OFFSET -2.866241 1.503904 -0.60527
                    CHANNELS 3 Zrotation Yrotation Xrotation
                    JOINT RightHandPinky2
                    {
                      OFFSET -5.553177 -2e-06 0.0
                      CHANNELS 3 Zrotation Yrotation Xrotation
                      JOINT RightHandPinky3
                      {
                        OFFSET -3.062664 -1e-06 -4e-06
                        CHANNELS 3 Zrotation Yrotation Xrotation
                        JOINT RightHandPinky4
                        {
                          OFFSET -1.546529 2e-06 4e-06
                          CHANNELS 3 Zrotation Yrotation Xrotation
                          JOINT RightHandPinkyEnd
                          {
                            OFFSET -1.952341 0.0 -4e-06
                            CHANNELS 3 Zrotation Yrotation Xrotation
                          }
                        }
                      }
                    }
                  }
                }
              }
            }
          }
        }
      }
    }
    JOINT LeftLeg
    {
      OFFSET -8.443107 2.567604 10.043214
      CHANNELS 3 Zrotation Yrotation Xrotation
      JOINT LeftShin
      {
        OFFSET 43.229198 1e-06 -1e-06
        CHANNELS 3 Zrotation Yrotation Xrotation
        JOINT LeftFoot
        {
          OFFSET 42.298611 1e-06 1e-06
          CHANNELS 3 Zrotation Yrotation Xrotation
          JOINT LeftToeBase
          {
            OFFSET 14.165858 1e-06 0.0
            CHANNELS 3 Zrotation Yrotation Xrotation
            JOINT LeftToeEnd
            {
              OFFSET 6.7141 -0.234461 0.0
              CHANNELS 3 Zrotation Yrotation Xrotation
            }
          }
        }
      }
    }
    JOINT RightLeg
    {
      OFFSET -8.303923 2.592729 -10.047278
      CHANNELS 3 Zrotation Yrotation Xrotation
      JOINT RightShin
      {
        OFFSET -43.369682 0.0 1e-06
        CHANNELS 3 Zrotation Yrotation Xrotation
        JOINT RightFoot
        {
          OFFSET -42.260784 4e-06 2e-06
          CHANNELS 3 Zrotation Yrotation Xrotation
          JOINT RightToeBase
          {
            OFFSET -14.222245 -2e-06 -1e-06
            CHANNELS 3 Zrotation Yrotation Xrotation
            JOINT RightToeEnd
            {
              OFFSET -6.660062 0.232574 -2e-06
              CHANNELS 3 Zrotation Yrotation Xrotation
            }
          }
        }
      }
    }
  }
}
MOTION
Frames: 4
Frame Time: 0.03333333333333333
0.0 0.0 0.0 0.0 -0.0 0.0 15.999275 3.636909 -20.413925 5.134588 71.453659 2.523583 0.277412 -4.06327 3.132216 -10.148189 -1.992309 -1.614996 15.103939 2.791619 -6.921616 -20.973707 2.965486 4.119446 -4.884947 3.327954 -5.21444 -55.167606 -0.317377 -13.158362 6e-06 0.0 -0.0 -0.435677 -0.123675 0.50219 1.27235 -0.965578 0.412535 0.504827 0.785536 0.624255 -18.387707 -70.33979 40.656826 36.208168 -62.56284 26.933119 35.579433 0.019605 1.472015 -8.857848 -8.178559 19.348661 17.636627 -26.322733 52.411201 -19.466669 -14.395597 29.410395 -2e-06 -8.774822 -2e-06 17.217091 -17.089869 5.969924 -0.609776 -1.795654 -3.889329 -4.80709 -11.046813 -2.937851 5e-06 -20.976025 -2e-06 -5.01997 -25.033566 -4.031882 6e-06 -0.0 0.0 -10.634536 -5.686973 -3.565588 10.573277 -17.922953 -3.113902 3e-06 -13.821209 0.0 -0.501775 -31.181511 -4.027018 -11.450958 -59.658485 7.324297 -13.982715 -7.150199 -2.875043 13.772733 -8.401493 -3.218242 0.347735 -34.211559 0.771652 -0.963028 -17.733372 2.621019 -0.0 -0.0 -0.0 -17.346422 -20.095222 -4.201783 21.757561 -1.638377 3.866428 1e-06 -6.338824 1e-06 -1.697587 -22.591753 -6.194009 -1e-06 -6e-06 -2e-06 -173.706467 -70.811211 -1.640529 -3.496892 -60.526917 33.382736 89.179001 -2.828259 4.168587 28.413719 28.823009 42.973858 22.182121 -20.375898 49.933327 -16.701818 -16.743528 28.476532 -4e-06 -12.690603 -2e-06 15.279547 -16.723505 0.266504 -0.105921 -1.513857 -4.275881 -5.039041 -5.612873 -2.953557 4e-06 -11.020527 -2e-06 -6.111298 -15.895338 -3.840472 -0.0 -1e-06 -0.0 -10.283372 -5.680288 -4.341839 11.028296 -11.302406 -2.372633 -1.384268 -14.238585 -6.320122 -0.625436 -26.924192 -3.827601 -3.637775 -45.563728 -5.055126 -13.708526 -7.363477 -3.72094 18.141153 -14.052746 -3.242676 7e-06 -18.787271 -2e-06 -0.429711 -8.456045 2.555504 0.0 -0.0 1e-06 -15.923536 -20.094484 -5.473586 30.419222 -7.190829 1.735926 4e-06 -8.162931 -0.0 -1.861899 -22.861473 -6.167946 1e-06 -3e-06 -1e-06 152.489044 -44.391193 -63.809158 114.477562 5.444583 2.941144 -59.57468 13.147833 -26.052275 -5.352125 1.502309 1.045455 -0.999998 0.0 -1e-06 -32.04718 -41.232342 -25.529495 62.842072 3.564293 -1.297292 -43.280556 -29.490479 -40.286434 -8.463216 0.306724 0.889962 -1.000003 -0.0 -0.0 
0.0 0.0 0.0 0.0 -0.0 0.0 16.273941 3.682292 -20.777092 5.602913 70.188713 2.476369 -0.131806 -3.813557 3.15969 -10.295083 -1.949141 -1.584903 15.183098 3.174088 -6.903601 -20.739149 3.766865 3.875252 -4.69774 2.958431 -5.435228 -53.863701 0.373649 -13.226922 5e-06 -0.0 -0.0 -0.455009 -0.136413 0.491898 1.347502 -0.957005 0.415398 0.485106 0.759248 0.607707 -20.727921 -70.717125 43.100231 38.267677 -62.089958 27.043787 33.18008 -0.251297 1.33239 -8.228444 -7.302061 16.419586 17.636633 -26.322729 52.411179 -19.46666 -14.395594 29.410385 -0.0 -8.774821 -2e-06 17.20673 -17.41597 6.036399 -0.609777 -1.795653 -3.889327 -4.80709 -11.046811 -2.937849 4e-06 -20.976021 -0.0 -5.019972 -25.03356 -4.03188 6e-06 0.0 0.0 -10.634533 -5.686972 -3.565587 10.573271 -17.922953 -3.113901 3e-06 -13.821206 1e-06 -0.501778 -31.181507 -4.027015 -11.757936 -60.295689 7.538813 -13.982714 -7.150198 -2.875041 13.77273 -8.401493 -3.218241 0.347734 -34.211555 0.771654 -0.963028 -17.733374 2.621019 -0.0 1e-06 -1e-06 -17.346418 -20.095219 -4.201779 21.757557 -1.638374 3.866428 1e-06 -6.338823 1e-06 -1.69759 -22.591745 -6.194006 -0.0 -7e-06 -2e-06 -177.582993 -71.511986 2.47033 2.890098 -58.395271 29.153475 95.727661 -3.308385 3.136066 28.558022 26.789232 45.27795 22.182123 -20.375895 49.933331 -16.701817 -16.743523 28.476536 -2e-06 -12.6906 -2e-06 16.12335 -16.816433 -0.098208 -0.105921 -1.513857 -4.275882 -5.039042 -5.612873 -2.953558 4e-06 -11.020527 -2e-06 -6.111298 -15.895341 -3.840474 0.0 2e-06 -0.0 -10.283373 -5.68029 -4.341842 11.028294 -11.302406 -2.372633 -1.384268 -14.238585 -6.320124 -0.625435 -26.924194 -3.827606 -3.767131 -46.10297 -4.9268 -13.708527 -7.363479 -3.720943 18.141148 -14.052743 -3.242674 6e-06 -18.787271 -2e-06 -0.429713 -8.456046 2.555503 -0.0 -1e-06 1e-06 -15.923538 -20.094492 -5.473589 30.419214 -7.190827 1.73593 4e-06 -8.162929 -2e-06 -1.861903 -22.861471 -6.167944 0.0 -4e-06 -1e-06 153.779861 -42.283237 -66.638588 106.881386 6.214577 2.498438 -63.233681 12.239651 -25.826223 -5.536355 1.429368 1.08424 -1.0 -0.0 -0.0 -30.661577 -39.46706 -23.708103 58.5611 3.42163 -1.198014 -39.34177 -33.708298 -43.159237 -8.659322 0.422146 0.869302 -1.000002 -0.0 0.0 
0.0 0.0 0.0 0.0 -0.0 0.0 16.522287 3.733474 -21.062881 6.023338 69.093781 2.405295 -0.76351 -3.533803 3.188871 -10.51142 -1.825979 -1.579297 15.33018 3.257303 -6.891576 -20.205462 4.625418 3.539285 -4.495769 2.756244 -5.626803 -52.998306 0.83277 -13.111543 7e-06 -0.0 0.0 -0.446944 -0.140035 0.465268 1.421038 -0.925649 0.420212 0.537966 0.723176 0.555076 -22.411547 -70.968422 45.059032 40.170643 -61.606647 27.086266 31.613661 -0.992955 1.172076 -7.657052 -6.721814 13.657014 17.636627 -26.322729 52.411186 -19.46666 -14.395596 29.410389 -1e-06 -8.774821 -2e-06 17.395142 -17.972898 6.062404 -0.609776 -1.795654 -3.889327 -4.807089 -11.046811 -2.93785 3e-06 -20.976019 -1e-06 -5.01997 -25.033562 -4.031882 6e-06 1e-06 0.0 -10.634533 -5.686971 -3.565588 10.573271 -17.922955 -3.113901 2e-06 -13.821211 0.0 -0.501778 -31.181511 -4.027018 -12.068977 -60.922604 7.681981 -13.982712 -7.150199 -2.875041 13.772727 -8.401489 -3.218241 0.347731 -34.211555 0.771653 -0.963029 -17.733372 2.621018 0.0 1e-06 0.0 -17.346418 -20.095221 -4.20178 21.757555 -1.638373 3.866426 0.0 -6.338823 1e-06 -1.697589 -22.591751 -6.194008 -0.0 -6e-06 -2e-06 178.900909 -71.816338 6.21307 8.117998 -55.88863 25.742403 103.416023 -4.051556 2.433973 30.033325 24.092073 49.823162 22.182104 -20.375885 49.933308 -16.701815 -16.743526 28.47653 -3e-06 -12.690599 -0.0 17.026661 -16.781601 -0.180255 -0.105921 -1.513857 -4.275881 -5.039039 -5.612871 -2.953556 3e-06 -11.020525 -3e-06 -6.111295 -15.895332 -3.840472 0.0 -1e-06 1e-06 -10.283369 -5.680288 -4.341838 11.028293 -11.302406 -2.372635 -1.384269 -14.238585 -6.320122 -0.625433 -26.924191 -3.827605 -4.181054 -46.966019 -4.231154 -13.708523 -7.363476 -3.720938 18.14115 -14.052739 -3.242678 9e-06 -18.78727 -7e-06 -0.429712 -8.456042 2.555502 1e-06 1e-06 -1e-06 -15.923531 -20.094482 -5.473586 30.41921 -7.190826 1.735922 4e-06 -8.162928 -2e-06 -1.861898 -22.861467 -6.167944 -1e-06 -2e-06 -2e-06 155.088516 -40.498962 -68.230881 100.702576 6.720316 1.947413 -64.327347 10.702825 -25.701698 -5.530586 1.359077 1.105404 -0.999999 2e-06 -2e-06 -29.049021 -37.835514 -23.04838 53.439182 3.467427 -1.261348 -36.351532 -37.746193 -45.019051 -8.824257 0.495712 0.780256 -1.000002 -0.0 -0.0 
0.0 0.0 0.0 0.0 -0.0 0.0 16.656294 3.851587 -21.355919 6.703128 68.426964 2.605636 -1.354965 -3.424199 3.231234 -10.719635 -1.756944 -1.621425 15.194175 3.118481 -6.901499 -19.489723 5.063582 3.601267 -4.464618 2.814477 -5.92941 -52.324631 1.172963 -13.060396 5e-06 -1e-06 0.0 -0.437295 -0.139413 0.394525 1.419567 -0.897551 0.371033 0.540795 0.699958 0.46661 -24.240433 -71.219604 47.088943 41.301918 -61.569538 27.966511 30.278034 -1.38626 0.993589 -7.016417 -6.149895 11.658744 17.636642 -26.322741 52.411213 -19.466665 -14.3956 29.410393 -0.0 -8.774824 -3e-06 17.520327 -18.342875 6.046138 -0.609777 -1.795655 -3.889328 -4.80709 -11.046815 -2.937851 3e-06 -20.976028 1e-06 -5.019973 -25.033573 -4.031882 6e-06 2e-06 0.0 -10.634538 -5.686974 -3.565588 10.573277 -17.922958 -3.113901 2e-06 -13.821217 2e-06 -0.501779 -31.181522 -4.027017 -12.442926 -61.318031 7.799922 -13.982719 -7.150201 -2.875043 13.772735 -8.401496 -3.218241 0.347732 -34.211571 0.771655 -0.96303 -17.733379 2.621021 -0.0 -0.0 -0.0 -17.346426 -20.095226 -4.201783 21.757566 -1.638375 3.86643 1e-06 -6.338825 1e-06 -1.69759 -22.591757 -6.19401 -0.0 -4e-06 -2e-06 176.052841 -71.868668 9.303139 11.505308 -53.51284 23.464239 110.887108 -4.356314 1.543325 30.98756 21.303371 53.297581 22.182121 -20.375895 49.933331 -16.701817 -16.74353 28.476538 -3e-06 -12.690603 -1e-06 17.611752 -16.801546 0.104553 -0.105918 -1.513857 -4.275881 -5.039043 -5.612874 -2.953557 4e-06 -11.020527 -2e-06 -6.111298 -15.895334 -3.840472 0.0 -1e-06 -0.0 -10.283373 -5.680291 -4.34184 11.028293 -11.302407 -2.372632 -1.384267 -14.238582 -6.320125 -0.62544 -26.924194 -3.827604 -4.781134 -47.887039 -3.347316 -13.708526 -7.363479 -3.72094 18.141155 -14.052739 -3.242676 7e-06 -18.78727 -4e-06 -0.429712 -8.456044 2.555503 2e-06 -1e-06 -0.0 -15.923538 -20.094492 -5.473587 30.419222 -7.190827 1.735925 2e-06 -8.162929 0.0 -1.8619 -22.861479 -6.167947 -0.0 -2e-06 -2e-06 156.756393 -39.100281 -69.300819 96.261192 7.028027 1.363876 -63.287064 8.128168 -25.318981 -5.406227 1.2845 1.111188 -0.999999 -1e-06 0.0 -27.771811 -36.705669 -23.088596 48.532085 3.518089 -1.464634 -35.243465 -41.821438 -45.498756 -8.71256 0.528595 0.728639 -1.000002 1e-06 0.0 
